<?xml version="1.0" encoding="UTF-8"?>
<svg id="Layer_1" data-name="Layer 1" xmlns="http://www.w3.org/2000/svg" viewBox="0 0 48 48">
  <defs>
    <style>
      .cls-1 {
        fill: #fff;
      }

      .cls-2 {
        fill: #30432c;
      }
    </style>
  </defs>
  <rect class="cls-2" width="48" height="48" rx="9.84" ry="9.84"/>
  <path class="cls-1" d="M27.27,20.61s4.43,14.28,12.19,14.28-11.92,0-11.92,0h-.27v-14.28Z"/>
  <path class="cls-1" d="M27.27,20.61s-4.43,14.28-12.19,14.28,11.92,0,11.92,0h.27s0-14.28,0-14.28Z"/>
  <path class="cls-1" d="M16.36,23.05h32.9v.86c0,.39-.32.71-.71.71H16.36v-1.57h0Z" transform="translate(27.45 -16.36) rotate(46.41)"/>
  <rect class="cls-1" x="6.21" y="22.91" width="32.54" height="1.57" transform="translate(55.14 23.75) rotate(133.59)"/>
  <rect class="cls-1" x="4" y="34.89" width="41" height="1.11"/>
  <rect class="cls-1" x="4" y="16.05" width="2.22" height="1.11"/>
  <rect class="cls-1" x="16.19" y="16.05" width="2.22" height="1.11"/>
  <rect class="cls-1" x="10.09" y="9.96" width="2.22" height="1.11" transform="translate(21.71 -.69) rotate(90)"/>
  <rect class="cls-1" x="10.09" y="22.15" width="2.22" height="1.11" transform="translate(33.9 11.5) rotate(90)"/>
  <rect class="cls-1" x="5.4" y="20.62" width="2.22" height="1.11" transform="translate(-13.06 10.81) rotate(-45)"/>
  <rect class="cls-1" x="14.02" y="12" width="2.22" height="1.11" transform="translate(-4.45 14.38) rotate(-45)"/>
  <rect class="cls-1" x="5.4" y="12" width="2.22" height="1.11" transform="translate(10.78 -.93) rotate(45)"/>
  <rect class="cls-1" x="14.02" y="20.62" width="2.22" height="1.11" transform="translate(19.4 -4.5) rotate(45)"/>
  <circle class="cls-1" cx="11.2" cy="16.61" r="2.77"/>
</svg>