<svg width="198" height="80" viewBox="0 0 198 80" fill="none" xmlns="http://www.w3.org/2000/svg">
<path fill-rule="evenodd" clip-rule="evenodd" d="M0 10.4718C0 4.68838 4.68839 0 10.4718 0H156.786C157.437 0 158.073 0.0593275 158.691 0.172867C161.523 0.373286 164.297 1.55583 166.462 3.7205L193.939 31.1972C198.71 35.9683 198.71 43.7037 193.939 48.4748L165.992 76.4217C163.495 78.9189 160.185 80.109 156.914 79.9922C156.872 79.9927 156.829 79.9929 156.786 79.9929H10.4718C4.68839 79.9929 0 75.3045 0 69.5211V10.4718ZM181.657 44.5051C184.147 44.5051 186.165 42.4865 186.165 39.9965C186.165 37.5064 184.147 35.4878 181.657 35.4878C179.167 35.4878 177.148 37.5064 177.148 39.9965C177.148 42.4865 179.167 44.5051 181.657 44.5051Z" fill="#AFA393"/>
<path d="M146.914 54.3952H142.733C142.612 54.3952 142.551 54.3346 142.551 54.2134L142.624 28.6338C142.624 28.5369 142.672 28.4884 142.769 28.4884H149.932C152.211 28.4884 154.01 29.1853 155.332 30.5791C156.665 31.9608 157.331 33.8455 157.331 36.2332C157.331 37.9785 156.986 39.4995 156.295 40.7964C155.592 42.0811 154.683 43.075 153.568 43.778C152.453 44.4809 151.241 44.8324 149.932 44.8324H147.096V54.2134C147.096 54.3346 147.035 54.3952 146.914 54.3952ZM149.932 32.9062L147.096 32.9426V40.3237H149.932C150.72 40.3237 151.405 39.948 151.986 39.1965C152.568 38.433 152.859 37.4452 152.859 36.2332C152.859 35.2636 152.598 34.4697 152.077 33.8516C151.556 33.2213 150.841 32.9062 149.932 32.9062Z" fill="#30432C"/>
<path d="M126.916 54.3952H122.698C122.601 54.3952 122.553 54.3346 122.553 54.2134L122.625 28.6338C122.625 28.5369 122.674 28.4884 122.771 28.4884H127.316C127.413 28.4884 127.498 28.5369 127.57 28.6338L130.97 33.5425L134.352 28.6338C134.424 28.5369 134.515 28.4884 134.624 28.4884H139.188C139.297 28.4884 139.351 28.5369 139.351 28.6338L139.424 54.2134C139.424 54.3346 139.375 54.3952 139.279 54.3952H135.061C134.964 54.3952 134.915 54.3346 134.915 54.2134L134.879 35.2151L130.97 40.8873L127.098 35.2151L127.061 54.2134C127.061 54.3346 127.013 54.3952 126.916 54.3952Z" fill="#30432C"/>
<path d="M105.409 54.2134L110.027 28.6338C110.051 28.5369 110.112 28.4884 110.209 28.4884H115.608C115.705 28.4884 115.766 28.5369 115.79 28.6338L120.226 54.2134C120.238 54.3346 120.189 54.3952 120.08 54.3952H115.953C115.832 54.3952 115.766 54.3346 115.753 54.2134L115.354 51.4864H110.281L109.881 54.2134C109.869 54.3346 109.809 54.3952 109.699 54.3952H105.554C105.457 54.3952 105.409 54.3346 105.409 54.2134ZM112.699 37.0513L111.027 47.5049H114.608L113.081 37.0513L112.863 35.6696L112.699 37.0513Z" fill="#30432C"/>
<path d="M96.646 54.7588C95.3006 54.7588 94.0704 54.4194 92.9554 53.7407C91.8525 53.062 90.9738 52.153 90.3193 51.0137C89.6769 49.8623 89.3557 48.5836 89.3557 47.1777L89.3921 35.5605C89.3921 34.1788 89.7072 32.9304 90.3374 31.8154C90.9677 30.6882 91.8343 29.7853 92.9372 29.1065C94.0523 28.4157 95.2885 28.0703 96.646 28.0703C98.0277 28.0703 99.2579 28.4036 100.337 29.0702C101.427 29.7368 102.294 30.6397 102.936 31.779C103.591 32.9062 103.918 34.1667 103.918 35.5605V37.2694C103.918 37.3664 103.87 37.4149 103.773 37.4149H99.5912C99.4942 37.4149 99.4457 37.3664 99.4457 37.2694V35.5605C99.4457 34.7363 99.1791 34.0273 98.6458 33.4334C98.1125 32.8395 97.4459 32.5426 96.646 32.5426C95.7612 32.5426 95.0825 32.8456 94.6098 33.4516C94.1371 34.0576 93.9008 34.7606 93.9008 35.5605V47.1777C93.9008 48.0867 94.1674 48.832 94.7007 49.4138C95.234 49.9835 95.8824 50.2683 96.646 50.2683C97.4459 50.2683 98.1125 49.9532 98.6458 49.3229C99.1791 48.6805 99.4457 47.9655 99.4457 47.1777V45.4505C99.4457 45.3536 99.4942 45.3051 99.5912 45.3051H103.809C103.906 45.3051 103.954 45.3536 103.954 45.4505V47.1777C103.954 48.5715 103.627 49.8441 102.973 50.9955C102.306 52.1348 101.427 53.0499 100.337 53.7407C99.2457 54.4194 98.0156 54.7588 96.646 54.7588Z" fill="#30432C"/>
<path d="M73.1571 54.3952H68.9575C68.8484 54.3952 68.7939 54.3346 68.7939 54.2134V32.9789H63.9579C63.8367 32.9789 63.7761 32.9183 63.7761 32.7971L63.8125 28.6338C63.8125 28.5369 63.861 28.4884 63.9579 28.4884H78.1021C78.2354 28.4884 78.3021 28.5369 78.3021 28.6338V32.7971C78.3021 32.9183 78.2536 32.9789 78.1567 32.9789H73.2662L73.3026 54.2134C73.3026 54.3346 73.2541 54.3952 73.1571 54.3952Z" fill="#30432C"/>
<path d="M61.7946 54.3952H57.5768C57.4556 54.3952 57.395 54.3346 57.395 54.2134L57.4314 28.6338C57.4314 28.5369 57.4799 28.4884 57.5768 28.4884H61.7583C61.8552 28.4884 61.9037 28.5369 61.9037 28.6338L61.9401 54.2134C61.9401 54.3346 61.8916 54.3952 61.7946 54.3952Z" fill="#30432C"/>
<path d="M44.087 54.3952H39.8692C39.7722 54.3952 39.7238 54.3346 39.7238 54.2134L39.7601 28.6338C39.7601 28.5369 39.8207 28.4884 39.9419 28.4884H44.087C44.2082 28.4884 44.2688 28.5369 44.2688 28.6338L44.2324 38.7602H49.8138V28.6338C49.8138 28.5369 49.8623 28.4884 49.9592 28.4884H54.1043C54.2255 28.4884 54.2861 28.5369 54.2861 28.6338L54.3588 54.2134C54.3588 54.3346 54.2982 54.3952 54.177 54.3952H49.9956C49.8744 54.3952 49.8138 54.3346 49.8138 54.2134V43.2689H44.2324V54.2134C44.2324 54.3346 44.184 54.3952 44.087 54.3952Z" fill="#30432C"/>
<path d="M24.2524 54.3952H19.7437C19.6346 54.3952 19.574 54.3346 19.5619 54.2134L15.1623 28.6338C15.1381 28.5369 15.1744 28.4884 15.2714 28.4884H19.4528C19.5498 28.4884 19.6104 28.5369 19.6346 28.6338L22.0162 45.4505L24.4706 28.6338C24.4948 28.5369 24.5675 28.4884 24.6887 28.4884H28.0521C28.149 28.4884 28.2096 28.5369 28.2339 28.6338L30.6518 45.4505L33.0698 28.6338C33.094 28.5369 33.1546 28.4884 33.2516 28.4884H37.3967C37.5179 28.4884 37.5664 28.5369 37.5421 28.6338L33.1062 54.2134C33.094 54.2619 33.0577 54.3043 32.9971 54.3407L32.9244 54.3952H28.4157C28.343 54.3952 28.2824 54.3346 28.2339 54.2134L26.3249 40.8509L24.4342 54.2134C24.4221 54.3346 24.3615 54.3952 24.2524 54.3952Z" fill="#30432C"/>
</svg>
