<svg width="680" height="276" viewBox="0 0 680 276" fill="none" xmlns="http://www.w3.org/2000/svg">
<path fill-rule="evenodd" clip-rule="evenodd" d="M0 36C0 16.1178 16.1178 3.05176e-05 36 3.05176e-05H539C541.237 3.05176e-05 543.425 0.203987 545.549 0.594315C555.283 1.28331 564.822 5.34866 572.264 12.7904L666.724 107.25C683.126 123.652 683.126 150.245 666.724 166.647L570.647 262.723C562.063 271.308 550.686 275.399 539.44 274.997C539.294 274.999 539.147 275 539 275H36C16.1178 275 0 258.882 0 239V36ZM624.5 153C633.06 153 640 146.06 640 137.5C640 128.94 633.06 122 624.5 122C615.94 122 609 128.94 609 137.5C609 146.06 615.94 153 624.5 153Z" fill="#AFA393"/>
<path d="M505.062 187H490.688C490.271 187 490.062 186.792 490.062 186.375L490.312 98.4375C490.312 98.1042 490.479 97.9375 490.812 97.9375H515.438C523.271 97.9375 529.458 100.333 534 105.125C538.583 109.875 540.875 116.354 540.875 124.562C540.875 130.562 539.688 135.792 537.312 140.25C534.896 144.667 531.771 148.083 527.938 150.5C524.104 152.917 519.938 154.125 515.438 154.125H505.688V186.375C505.688 186.792 505.479 187 505.062 187ZM515.438 113.125L505.688 113.25V138.625H515.438C518.146 138.625 520.5 137.333 522.5 134.75C524.5 132.125 525.5 128.729 525.5 124.562C525.5 121.229 524.604 118.5 522.812 116.375C521.021 114.208 518.562 113.125 515.438 113.125Z" fill="#30432C"/>
<path d="M436.312 187H421.812C421.479 187 421.312 186.792 421.312 186.375L421.562 98.4375C421.562 98.1042 421.729 97.9375 422.062 97.9375H437.688C438.021 97.9375 438.312 98.1042 438.562 98.4375L450.25 115.312L461.875 98.4375C462.125 98.1042 462.438 97.9375 462.812 97.9375H478.5C478.875 97.9375 479.062 98.1042 479.062 98.4375L479.312 186.375C479.312 186.792 479.146 187 478.812 187H464.312C463.979 187 463.812 186.792 463.812 186.375L463.688 121.062L450.25 140.562L436.938 121.062L436.812 186.375C436.812 186.792 436.646 187 436.312 187Z" fill="#30432C"/>
<path d="M362.375 186.375L378.25 98.4375C378.333 98.1042 378.542 97.9375 378.875 97.9375H397.438C397.771 97.9375 397.979 98.1042 398.062 98.4375L413.312 186.375C413.354 186.792 413.188 187 412.812 187H398.625C398.208 187 397.979 186.792 397.938 186.375L396.562 177H379.125L377.75 186.375C377.708 186.792 377.5 187 377.125 187H362.875C362.542 187 362.375 186.792 362.375 186.375ZM387.438 127.375L381.688 163.312H394L388.75 127.375L388 122.625L387.438 127.375Z" fill="#30432C"/>
<path d="M332.25 188.25C327.625 188.25 323.396 187.083 319.562 184.75C315.771 182.417 312.75 179.292 310.5 175.375C308.292 171.417 307.188 167.021 307.188 162.188L307.312 122.25C307.312 117.5 308.396 113.208 310.562 109.375C312.729 105.5 315.708 102.396 319.5 100.062C323.333 97.6875 327.583 96.5 332.25 96.5C337 96.5 341.229 97.6458 344.938 99.9375C348.688 102.229 351.667 105.333 353.875 109.25C356.125 113.125 357.25 117.458 357.25 122.25V128.125C357.25 128.458 357.083 128.625 356.75 128.625H342.375C342.042 128.625 341.875 128.458 341.875 128.125V122.25C341.875 119.417 340.958 116.979 339.125 114.938C337.292 112.896 335 111.875 332.25 111.875C329.208 111.875 326.875 112.917 325.25 115C323.625 117.083 322.812 119.5 322.812 122.25V162.188C322.812 165.312 323.729 167.875 325.562 169.875C327.396 171.833 329.625 172.812 332.25 172.812C335 172.812 337.292 171.729 339.125 169.562C340.958 167.354 341.875 164.896 341.875 162.188V156.25C341.875 155.917 342.042 155.75 342.375 155.75H356.875C357.208 155.75 357.375 155.917 357.375 156.25V162.188C357.375 166.979 356.25 171.354 354 175.312C351.708 179.229 348.688 182.375 344.938 184.75C341.188 187.083 336.958 188.25 332.25 188.25Z" fill="#30432C"/>
<path d="M251.5 187H237.062C236.688 187 236.5 186.792 236.5 186.375V113.375H219.875C219.458 113.375 219.25 113.167 219.25 112.75L219.375 98.4375C219.375 98.1042 219.542 97.9375 219.875 97.9375H268.5C268.958 97.9375 269.188 98.1042 269.188 98.4375V112.75C269.188 113.167 269.021 113.375 268.688 113.375H251.875L252 186.375C252 186.792 251.833 187 251.5 187Z" fill="#30432C"/>
<path d="M212.438 187H197.938C197.521 187 197.312 186.792 197.312 186.375L197.438 98.4375C197.438 98.1042 197.604 97.9375 197.938 97.9375H212.312C212.646 97.9375 212.812 98.1042 212.812 98.4375L212.938 186.375C212.938 186.792 212.771 187 212.438 187Z" fill="#30432C"/>
<path d="M151.562 187H137.062C136.729 187 136.562 186.792 136.562 186.375L136.688 98.4375C136.688 98.1042 136.896 97.9375 137.312 97.9375H151.562C151.979 97.9375 152.188 98.1042 152.188 98.4375L152.062 133.25H171.25V98.4375C171.25 98.1042 171.417 97.9375 171.75 97.9375H186C186.417 97.9375 186.625 98.1042 186.625 98.4375L186.875 186.375C186.875 186.792 186.667 187 186.25 187H171.875C171.458 187 171.25 186.792 171.25 186.375V148.75H152.062V186.375C152.062 186.792 151.896 187 151.562 187Z" fill="#30432C"/>
<path d="M83.375 187H67.875C67.5 187 67.2916 186.792 67.25 186.375L52.125 98.4375C52.0416 98.1042 52.1666 97.9375 52.5 97.9375H66.875C67.2083 97.9375 67.4166 98.1042 67.5 98.4375L75.6875 156.25L84.125 98.4375C84.2083 98.1042 84.4583 97.9375 84.875 97.9375H96.4375C96.7708 97.9375 96.9791 98.1042 97.0625 98.4375L105.375 156.25L113.687 98.4375C113.771 98.1042 113.979 97.9375 114.312 97.9375H128.562C128.979 97.9375 129.146 98.1042 129.062 98.4375L113.812 186.375C113.771 186.542 113.646 186.688 113.437 186.812L113.187 187H97.6875C97.4375 187 97.2291 186.792 97.0625 186.375L90.5 140.438L84 186.375C83.9583 186.792 83.75 187 83.375 187Z" fill="#30432C"/>
</svg>
